<svg xmlns="http://www.w3.org/2000/svg" xmlns:xlink="http://www.w3.org/1999/xlink" contentStyleType="text/css" data-diagram-type="ACTIVITY" height="498px" preserveAspectRatio="none" style="width:399px;height:498px;background:#FFFFFF;" version="1.1" viewBox="0 0 399 498" width="399px" zoomAndPan="magnify"><defs/><g><ellipse cx="199.8896" cy="20" fill="#222222" rx="10" ry="10" style="stroke:#222222;stroke-width:1;"/><rect fill="#F1F1F1" height="47.9375" rx="12.5" ry="12.5" style="stroke:#181818;stroke-width:0.5;" width="377.7793" x="11" y="50"/><text fill="#000000" font-family="sans-serif" font-size="12" lengthAdjust="spacing" textLength="157.2188" x="21" y="71.1387">Detectar hazard de datos:</text><text fill="#000000" font-family="sans-serif" font-size="12" lengthAdjust="spacing" textLength="357.7793" x="21" y="85.1074">-&gt; &#191;Hay LOAD seguido de instrucci&#243;n que usa el mismo rd?</text><polygon fill="#F1F1F1" points="187.8896,117.9375,211.8896,117.9375,223.8896,129.9375,211.8896,141.9375,187.8896,141.9375,175.8896,129.9375,187.8896,117.9375" style="stroke:#181818;stroke-width:0.5;"/><text fill="#000000" font-family="sans-serif" font-size="11" lengthAdjust="spacing" textLength="20.1577" x="189.8108" y="133.7456">"S&#237;"</text><rect fill="#F1F1F1" height="33.9688" rx="12.5" ry="12.5" style="stroke:#181818;stroke-width:0.5;" width="114.3184" x="71.3892" y="151.9375"/><text fill="#000000" font-family="sans-serif" font-size="12" lengthAdjust="spacing" textLength="94.3184" x="81.3892" y="173.0762">Requiere STALL</text><rect fill="#F1F1F1" height="33.9688" rx="12.5" ry="12.5" style="stroke:#181818;stroke-width:0.5;" width="131.0469" x="205.7075" y="151.9375"/><text fill="#000000" font-family="sans-serif" font-size="12" lengthAdjust="spacing" textLength="111.0469" x="215.7075" y="173.0762">No requiere STALL</text><polygon fill="#F1F1F1" points="199.8896,191.9063,211.8896,203.9063,199.8896,215.9063,187.8896,203.9063,199.8896,191.9063" style="stroke:#181818;stroke-width:0.5;"/><rect fill="#F1F1F1" height="47.9375" rx="12.5" ry="12.5" style="stroke:#181818;stroke-width:0.5;" width="315.9453" x="41.917" y="235.9063"/><text fill="#000000" font-family="sans-serif" font-size="12" lengthAdjust="spacing" textLength="189.7148" x="51.917" y="257.0449">Calcular se&#241;ales de forwarding:</text><text fill="#000000" font-family="sans-serif" font-size="12" lengthAdjust="spacing" textLength="295.9453" x="51.917" y="271.0137">-&gt; &#191;ex_mem o mem_wb tiene el valor requerido?</text><rect fill="#F1F1F1" height="33.9688" rx="12.5" ry="12.5" style="stroke:#181818;stroke-width:0.5;" width="275.3047" x="62.2373" y="303.8438"/><text fill="#000000" font-family="sans-serif" font-size="12" lengthAdjust="spacing" textLength="255.3047" x="72.2373" y="324.9824">Asignar se&#241;ales forward_rs1 y forward_rs2</text><rect fill="#F1F1F1" height="33.9688" rx="12.5" ry="12.5" style="stroke:#181818;stroke-width:0.5;" width="207.5117" x="96.1338" y="357.8125"/><text fill="#000000" font-family="sans-serif" font-size="12" lengthAdjust="spacing" textLength="187.5117" x="106.1338" y="378.9512">Aplicar forwarding si es posible</text><rect fill="#F1F1F1" height="33.9688" rx="12.5" ry="12.5" style="stroke:#181818;stroke-width:0.5;" width="302.1758" x="48.8018" y="411.7813"/><text fill="#000000" font-family="sans-serif" font-size="12" lengthAdjust="spacing" textLength="282.1758" x="58.8018" y="432.9199">Devolver nuevos valores rs1_value y rs2_value</text><ellipse cx="199.8896" cy="476.75" fill="none" rx="11" ry="11" style="stroke:#222222;stroke-width:1;"/><ellipse cx="199.8896" cy="476.75" fill="#222222" rx="6" ry="6" style="stroke:#222222;stroke-width:1;"/><line style="stroke:#181818;stroke-width:1;" x1="199.8896" x2="199.8896" y1="30" y2="50"/><polygon fill="#181818" points="195.8896,40,199.8896,50,203.8896,40,199.8896,44" style="stroke:#181818;stroke-width:1;"/><line style="stroke:#181818;stroke-width:1;" x1="175.8896" x2="128.5483" y1="129.9375" y2="129.9375"/><line style="stroke:#181818;stroke-width:1;" x1="128.5483" x2="128.5483" y1="129.9375" y2="151.9375"/><polygon fill="#181818" points="124.5483,141.9375,128.5483,151.9375,132.5483,141.9375,128.5483,145.9375" style="stroke:#181818;stroke-width:1;"/><line style="stroke:#181818;stroke-width:1;" x1="223.8896" x2="271.231" y1="129.9375" y2="129.9375"/><line style="stroke:#181818;stroke-width:1;" x1="271.231" x2="271.231" y1="129.9375" y2="151.9375"/><polygon fill="#181818" points="267.231,141.9375,271.231,151.9375,275.231,141.9375,271.231,145.9375" style="stroke:#181818;stroke-width:1;"/><line style="stroke:#181818;stroke-width:1;" x1="128.5483" x2="128.5483" y1="185.9063" y2="203.9063"/><line style="stroke:#181818;stroke-width:1;" x1="128.5483" x2="187.8896" y1="203.9063" y2="203.9063"/><polygon fill="#181818" points="177.8896,199.9063,187.8896,203.9063,177.8896,207.9063,181.8896,203.9063" style="stroke:#181818;stroke-width:1;"/><line style="stroke:#181818;stroke-width:1;" x1="271.231" x2="271.231" y1="185.9063" y2="203.9063"/><line style="stroke:#181818;stroke-width:1;" x1="271.231" x2="211.8896" y1="203.9063" y2="203.9063"/><polygon fill="#181818" points="221.8896,199.9063,211.8896,203.9063,221.8896,207.9063,217.8896,203.9063" style="stroke:#181818;stroke-width:1;"/><line style="stroke:#181818;stroke-width:1;" x1="199.8896" x2="199.8896" y1="97.9375" y2="117.9375"/><polygon fill="#181818" points="195.8896,107.9375,199.8896,117.9375,203.8896,107.9375,199.8896,111.9375" style="stroke:#181818;stroke-width:1;"/><line style="stroke:#181818;stroke-width:1;" x1="199.8896" x2="199.8896" y1="215.9063" y2="235.9063"/><polygon fill="#181818" points="195.8896,225.9063,199.8896,235.9063,203.8896,225.9063,199.8896,229.9063" style="stroke:#181818;stroke-width:1;"/><line style="stroke:#181818;stroke-width:1;" x1="199.8896" x2="199.8896" y1="283.8438" y2="303.8438"/><polygon fill="#181818" points="195.8896,293.8438,199.8896,303.8438,203.8896,293.8438,199.8896,297.8438" style="stroke:#181818;stroke-width:1;"/><line style="stroke:#181818;stroke-width:1;" x1="199.8896" x2="199.8896" y1="337.8125" y2="357.8125"/><polygon fill="#181818" points="195.8896,347.8125,199.8896,357.8125,203.8896,347.8125,199.8896,351.8125" style="stroke:#181818;stroke-width:1;"/><line style="stroke:#181818;stroke-width:1;" x1="199.8896" x2="199.8896" y1="391.7813" y2="411.7813"/><polygon fill="#181818" points="195.8896,401.7813,199.8896,411.7813,203.8896,401.7813,199.8896,405.7813" style="stroke:#181818;stroke-width:1;"/><line style="stroke:#181818;stroke-width:1;" x1="199.8896" x2="199.8896" y1="445.75" y2="465.75"/><polygon fill="#181818" points="195.8896,455.75,199.8896,465.75,203.8896,455.75,199.8896,459.75" style="stroke:#181818;stroke-width:1;"/><!--SRC=[NP2_JiCm4CPtFyMfKnaOw9X8e8WE7IAGMlR8ZI_fIOwT-koKy4uCY0T08Y_6XLQYOh4-tv_l- -auwX1LjiQ8jKWuw3ST31W4ewFdJDtUm_VNHezGFXThO6mJ6J_toN4CgQvf-dHmJ0Y9DQ25ZhZp4Cn3hgY1vM8tlIzk81xGAO1iYyT4611sBqLPvWejurn_afN_BMUeKIfxrBPELjWOfmzjaUVqneUJW99hBuZuMdNOWGTvgzCU8g73cMVGreTVSmo2BbXPmTIwQyEBMnNu3iQhtogN_AAtLClqNoGmWMprdcblCP_FDtWxO02NHF4vKoR4hn8jnnb5hyuwLnnz_mC0]--></g></svg>