<svg xmlns="http://www.w3.org/2000/svg" xmlns:xlink="http://www.w3.org/1999/xlink" contentStyleType="text/css" data-diagram-type="ACTIVITY" height="482px" preserveAspectRatio="none" style="width:704px;height:482px;background:#FFFFFF;" version="1.1" viewBox="0 0 704 482" width="704px" zoomAndPan="magnify"><defs/><g><ellipse cx="368.2214" cy="20" fill="#222222" rx="10" ry="10" style="stroke:#222222;stroke-width:1;"/><rect fill="#F1F1F1" height="33.9688" rx="12.5" ry="12.5" style="stroke:#181818;stroke-width:0.5;" width="131.2637" x="302.5896" y="50"/><text fill="#000000" font-family="sans-serif" font-size="12" lengthAdjust="spacing" textLength="111.2637" x="312.5896" y="71.1387">Recibir instrucci&#243;n</text><polygon fill="#F1F1F1" points="32,103.9688,154.6758,103.9688,166.6758,115.9688,154.6758,127.9688,32,127.9688,20,115.9688,32,103.9688" style="stroke:#181818;stroke-width:0.5;"/><text fill="#000000" font-family="sans-serif" font-size="11" lengthAdjust="spacing" textLength="8.7871" x="97.3379" y="138.1792">s&#237;</text><text fill="#000000" font-family="sans-serif" font-size="11" lengthAdjust="spacing" textLength="122.6758" x="32" y="119.7769">"&#191;Es ADD, SUB, MUL?"</text><rect fill="#F1F1F1" height="33.9688" rx="12.5" ry="12.5" style="stroke:#181818;stroke-width:0.5;" width="110.8789" x="37.8984" y="159.6792"/><text fill="#000000" font-family="sans-serif" font-size="12" lengthAdjust="spacing" textLength="90.8789" x="47.8984" y="180.8179">Usar formato R</text><polygon fill="#F1F1F1" points="198.6758,103.9688,267.4312,103.9688,279.4312,115.9688,267.4312,127.9688,198.6758,127.9688,186.6758,115.9688,198.6758,103.9688" style="stroke:#181818;stroke-width:0.5;"/><text fill="#000000" font-family="sans-serif" font-size="11" lengthAdjust="spacing" textLength="8.7871" x="237.0535" y="138.1792">s&#237;</text><text fill="#000000" font-family="sans-serif" font-size="11" lengthAdjust="spacing" textLength="68.7554" x="198.6758" y="119.7769">"&#191;Es LOAD?"</text><rect fill="#F1F1F1" height="33.9688" rx="12.5" ry="12.5" style="stroke:#181818;stroke-width:0.5;" width="106.0801" x="180.0134" y="159.6792"/><text fill="#000000" font-family="sans-serif" font-size="12" lengthAdjust="spacing" textLength="86.0801" x="190.0134" y="180.8179">Usar formato I</text><polygon fill="#F1F1F1" points="323.7092,103.9688,398.636,103.9688,410.636,115.9688,398.636,127.9688,323.7092,127.9688,311.7092,115.9688,323.7092,103.9688" style="stroke:#181818;stroke-width:0.5;"/><text fill="#000000" font-family="sans-serif" font-size="11" lengthAdjust="spacing" textLength="8.7871" x="365.1726" y="138.1792">s&#237;</text><text fill="#000000" font-family="sans-serif" font-size="11" lengthAdjust="spacing" textLength="74.9268" x="323.7092" y="119.7769">"&#191;Es STORE?"</text><rect fill="#F1F1F1" height="33.9688" rx="12.5" ry="12.5" style="stroke:#181818;stroke-width:0.5;" width="110.1582" x="306.0935" y="159.6792"/><text fill="#000000" font-family="sans-serif" font-size="12" lengthAdjust="spacing" textLength="90.1582" x="316.0935" y="180.8179">Usar formato S</text><polygon fill="#F1F1F1" points="461.0742,103.9688,522.2026,103.9688,534.2026,115.9688,522.2026,127.9688,461.0742,127.9688,449.0742,115.9688,461.0742,103.9688" style="stroke:#181818;stroke-width:0.5;"/><text fill="#000000" font-family="sans-serif" font-size="11" lengthAdjust="spacing" textLength="8.7871" x="495.6384" y="138.1792">s&#237;</text><text fill="#000000" font-family="sans-serif" font-size="11" lengthAdjust="spacing" textLength="61.1284" x="461.0742" y="119.7769">"&#191;Es BEQ?"</text><rect fill="#F1F1F1" height="33.9688" rx="12.5" ry="12.5" style="stroke:#181818;stroke-width:0.5;" width="110.7734" x="436.2517" y="159.6792"/><text fill="#000000" font-family="sans-serif" font-size="12" lengthAdjust="spacing" textLength="90.7734" x="446.2517" y="180.8179">Usar formato B</text><polygon fill="#F1F1F1" points="579.0251,103.9688,644.4182,103.9688,656.4182,115.9688,644.4182,127.9688,579.0251,127.9688,567.0251,115.9688,579.0251,103.9688" style="stroke:#181818;stroke-width:0.5;"/><text fill="#000000" font-family="sans-serif" font-size="11" lengthAdjust="spacing" textLength="8.7871" x="615.7217" y="138.1792">s&#237;</text><text fill="#000000" font-family="sans-serif" font-size="11" lengthAdjust="spacing" textLength="65.3931" x="579.0251" y="119.7769">"&#191;Es JUMP?"</text><rect fill="#F1F1F1" height="33.9688" rx="12.5" ry="12.5" style="stroke:#181818;stroke-width:0.5;" width="106.0801" x="558.6816" y="159.6792"/><text fill="#000000" font-family="sans-serif" font-size="12" lengthAdjust="spacing" textLength="86.0801" x="568.6816" y="180.8179">Usar formato J</text><rect fill="#F1F1F1" height="33.9688" rx="12.5" ry="12.5" style="stroke:#181818;stroke-width:0.5;" width="199.9473" x="268.2478" y="233.6479"/><text fill="#000000" font-family="sans-serif" font-size="12" lengthAdjust="spacing" textLength="179.9473" x="278.2478" y="254.7866">Codificar instrucci&#243;n (encode)</text><rect fill="#F1F1F1" height="33.9688" rx="12.5" ry="12.5" style="stroke:#181818;stroke-width:0.5;" width="214.8008" x="260.821" y="287.6167"/><text fill="#000000" font-family="sans-serif" font-size="12" lengthAdjust="spacing" textLength="194.8008" x="270.821" y="308.7554">Decodificar instrucci&#243;n (decode)</text><rect fill="#F1F1F1" height="33.9688" rx="12.5" ry="12.5" style="stroke:#181818;stroke-width:0.5;" width="279.4531" x="228.4949" y="341.5854"/><text fill="#000000" font-family="sans-serif" font-size="12" lengthAdjust="spacing" textLength="259.4531" x="238.4949" y="362.7241">Ejecutar instrucci&#243;n (si se llama a execute)</text><rect fill="#F1F1F1" height="33.9688" rx="12.5" ry="12.5" style="stroke:#181818;stroke-width:0.5;" width="278.4746" x="228.9841" y="395.5542"/><text fill="#000000" font-family="sans-serif" font-size="12" lengthAdjust="spacing" textLength="258.4746" x="238.9841" y="416.6929">Opcionalmente ensamblar o desensamblar</text><ellipse cx="368.2214" cy="460.5229" fill="none" rx="11" ry="11" style="stroke:#222222;stroke-width:1;"/><ellipse cx="368.2214" cy="460.5229" fill="#222222" rx="6" ry="6" style="stroke:#222222;stroke-width:1;"/><line style="stroke:#181818;stroke-width:1;" x1="368.2214" x2="368.2214" y1="30" y2="50"/><polygon fill="#181818" points="364.2214,40,368.2214,50,372.2214,40,368.2214,44" style="stroke:#181818;stroke-width:1;"/><line style="stroke:#181818;stroke-width:1;" x1="93.3379" x2="93.3379" y1="127.9688" y2="159.6792"/><polygon fill="#181818" points="89.3379,149.6792,93.3379,159.6792,97.3379,149.6792,93.3379,153.6792" style="stroke:#181818;stroke-width:1;"/><line style="stroke:#181818;stroke-width:1;" x1="93.3379" x2="93.3379" y1="193.6479" y2="213.6479"/><polygon fill="#181818" points="89.3379,203.6479,93.3379,213.6479,97.3379,203.6479,93.3379,207.6479" style="stroke:#181818;stroke-width:1;"/><line style="stroke:#181818;stroke-width:1;" x1="233.0535" x2="233.0535" y1="127.9688" y2="159.6792"/><polygon fill="#181818" points="229.0535,149.6792,233.0535,159.6792,237.0535,149.6792,233.0535,153.6792" style="stroke:#181818;stroke-width:1;"/><line style="stroke:#181818;stroke-width:1;" x1="233.0535" x2="233.0535" y1="193.6479" y2="213.6479"/><polygon fill="#181818" points="229.0535,203.6479,233.0535,213.6479,237.0535,203.6479,233.0535,207.6479" style="stroke:#181818;stroke-width:1;"/><line style="stroke:#181818;stroke-width:1;" x1="361.1726" x2="361.1726" y1="127.9688" y2="159.6792"/><polygon fill="#181818" points="357.1726,149.6792,361.1726,159.6792,365.1726,149.6792,361.1726,153.6792" style="stroke:#181818;stroke-width:1;"/><line style="stroke:#181818;stroke-width:1;" x1="361.1726" x2="361.1726" y1="193.6479" y2="213.6479"/><polygon fill="#181818" points="357.1726,203.6479,361.1726,213.6479,365.1726,203.6479,361.1726,207.6479" style="stroke:#181818;stroke-width:1;"/><line style="stroke:#181818;stroke-width:1;" x1="491.6384" x2="491.6384" y1="127.9688" y2="159.6792"/><polygon fill="#181818" points="487.6384,149.6792,491.6384,159.6792,495.6384,149.6792,491.6384,153.6792" style="stroke:#181818;stroke-width:1;"/><line style="stroke:#181818;stroke-width:1;" x1="491.6384" x2="491.6384" y1="193.6479" y2="213.6479"/><polygon fill="#181818" points="487.6384,203.6479,491.6384,213.6479,495.6384,203.6479,491.6384,207.6479" style="stroke:#181818;stroke-width:1;"/><line style="stroke:#181818;stroke-width:1;" x1="611.7217" x2="611.7217" y1="127.9688" y2="159.6792"/><polygon fill="#181818" points="607.7217,149.6792,611.7217,159.6792,615.7217,149.6792,611.7217,153.6792" style="stroke:#181818;stroke-width:1;"/><line style="stroke:#181818;stroke-width:1;" x1="611.7217" x2="611.7217" y1="193.6479" y2="213.6479"/><polygon fill="#181818" points="607.7217,203.6479,611.7217,213.6479,615.7217,203.6479,611.7217,207.6479" style="stroke:#181818;stroke-width:1;"/><line style="stroke:#181818;stroke-width:1;" x1="166.6758" x2="186.6758" y1="115.9688" y2="115.9688"/><polygon fill="#181818" points="176.6758,111.9688,186.6758,115.9688,176.6758,119.9688,180.6758,115.9688" style="stroke:#181818;stroke-width:1;"/><line style="stroke:#181818;stroke-width:1;" x1="279.4312" x2="311.7092" y1="115.9688" y2="115.9688"/><polygon fill="#181818" points="301.7092,111.9688,311.7092,115.9688,301.7092,119.9688,305.7092,115.9688" style="stroke:#181818;stroke-width:1;"/><line style="stroke:#181818;stroke-width:1;" x1="410.636" x2="449.0742" y1="115.9688" y2="115.9688"/><polygon fill="#181818" points="439.0742,111.9688,449.0742,115.9688,439.0742,119.9688,443.0742,115.9688" style="stroke:#181818;stroke-width:1;"/><line style="stroke:#181818;stroke-width:1;" x1="534.2026" x2="567.0251" y1="115.9688" y2="115.9688"/><polygon fill="#181818" points="557.0251,111.9688,567.0251,115.9688,557.0251,119.9688,561.0251,115.9688" style="stroke:#181818;stroke-width:1;"/><line style="stroke:#181818;stroke-width:1;" x1="368.2214" x2="368.2214" y1="83.9688" y2="88.9688"/><line style="stroke:#181818;stroke-width:1;" x1="368.2214" x2="93.3379" y1="88.9688" y2="88.9688"/><line style="stroke:#181818;stroke-width:1;" x1="93.3379" x2="93.3379" y1="88.9688" y2="103.9688"/><polygon fill="#181818" points="89.3379,93.9688,93.3379,103.9688,97.3379,93.9688,93.3379,97.9688" style="stroke:#181818;stroke-width:1;"/><line style="stroke:#181818;stroke-width:1;" x1="656.4182" x2="678.7617" y1="115.9688" y2="115.9688"/><line style="stroke:#181818;stroke-width:1;" x1="678.7617" x2="678.7617" y1="115.9688" y2="213.6479"/><polygon fill="#181818" points="674.7617,203.6479,678.7617,213.6479,682.7617,203.6479,678.7617,207.6479" style="stroke:#181818;stroke-width:1;"/><line style="stroke:#181818;stroke-width:1;" x1="93.3379" x2="678.7617" y1="213.6479" y2="213.6479"/><line style="stroke:#181818;stroke-width:1;" x1="368.2214" x2="368.2214" y1="213.6479" y2="233.6479"/><polygon fill="#181818" points="364.2214,223.6479,368.2214,233.6479,372.2214,223.6479,368.2214,227.6479" style="stroke:#181818;stroke-width:1;"/><line style="stroke:#181818;stroke-width:1;" x1="368.2214" x2="368.2214" y1="267.6167" y2="287.6167"/><polygon fill="#181818" points="364.2214,277.6167,368.2214,287.6167,372.2214,277.6167,368.2214,281.6167" style="stroke:#181818;stroke-width:1;"/><line style="stroke:#181818;stroke-width:1;" x1="368.2214" x2="368.2214" y1="321.5854" y2="341.5854"/><polygon fill="#181818" points="364.2214,331.5854,368.2214,341.5854,372.2214,331.5854,368.2214,335.5854" style="stroke:#181818;stroke-width:1;"/><line style="stroke:#181818;stroke-width:1;" x1="368.2214" x2="368.2214" y1="375.5542" y2="395.5542"/><polygon fill="#181818" points="364.2214,385.5542,368.2214,395.5542,372.2214,385.5542,368.2214,389.5542" style="stroke:#181818;stroke-width:1;"/><line style="stroke:#181818;stroke-width:1;" x1="368.2214" x2="368.2214" y1="429.5229" y2="449.5229"/><polygon fill="#181818" points="364.2214,439.5229,368.2214,449.5229,372.2214,439.5229,368.2214,443.5229" style="stroke:#181818;stroke-width:1;"/><!--SRC=[XT11IiD05CRn_PpYewi4Ue9a8Ot9mj8IcvW3J2Sl-6GoK-PDePTovG44Up6Ze694idfyyFzjdaGTeieQCdpa07OImzaOlhwuNF60PFNsMWasPRb6snLhxBlTpIf5V2I7HAxFgGAoJdJ0uCEeeqUJAx92FtXNRye5SpStxKFTL0kedQEYEYoGOawstVv-mMmduteUbCfk_NJPwD-FGaBE-9xIN6KbcN-QdhwQwedCEVu9X244Q_MeeK6NZ-Yphq-6lTDs91S9v4IFHpjnZvxaU-PAeZ-z0m00]--></g></svg>