<svg xmlns="http://www.w3.org/2000/svg" xmlns:xlink="http://www.w3.org/1999/xlink" contentStyleType="text/css" data-diagram-type="ACTIVITY" height="1079px" preserveAspectRatio="none" style="width:357px;height:1079px;background:#FFFFFF;" version="1.1" viewBox="0 0 357 1079" width="357px" zoomAndPan="magnify"><defs/><g><ellipse cx="178.9951" cy="20" fill="#222222" rx="10" ry="10" style="stroke:#222222;stroke-width:1;"/><rect fill="#F1F1F1" height="33.9688" rx="12.5" ry="12.5" style="stroke:#181818;stroke-width:0.5;" width="335.9902" x="11" y="50"/><text fill="#000000" font-family="sans-serif" font-size="12" lengthAdjust="spacing" textLength="315.9902" x="21" y="71.1387">Inicializar registros del pipeline, memoria y registros</text><rect fill="#F1F1F1" height="33.9688" rx="12.5" ry="12.5" style="stroke:#181818;stroke-width:0.5;" width="143.9316" x="107.0293" y="103.9688"/><text fill="#000000" font-family="sans-serif" font-size="12" lengthAdjust="spacing" textLength="123.9316" x="117.0293" y="125.1074">Cargar instrucciones</text><rect fill="#F1F1F1" height="33.9688" rx="12.5" ry="12.5" style="stroke:#181818;stroke-width:0.5;" width="144.7988" x="106.5957" y="201.9375"/><text fill="#000000" font-family="sans-serif" font-size="12" lengthAdjust="spacing" textLength="124.7988" x="116.5957" y="223.0762">Etapa WB (escritura)</text><rect fill="#F1F1F1" height="33.9688" rx="12.5" ry="12.5" style="stroke:#181818;stroke-width:0.5;" width="153.6172" x="102.1865" y="255.9063"/><text fill="#000000" font-family="sans-serif" font-size="12" lengthAdjust="spacing" textLength="133.6172" x="112.1865" y="277.0449">Etapa MEM (memoria)</text><rect fill="#F1F1F1" height="33.9688" rx="12.5" ry="12.5" style="stroke:#181818;stroke-width:0.5;" width="144.5879" x="106.7012" y="309.875"/><text fill="#000000" font-family="sans-serif" font-size="12" lengthAdjust="spacing" textLength="124.5879" x="116.7012" y="331.0137">Etapa EX (ejecuci&#243;n)</text><rect fill="#F1F1F1" height="33.9688" rx="12.5" ry="12.5" style="stroke:#181818;stroke-width:0.5;" width="96.0254" x="130.9824" y="412.2461"/><text fill="#000000" font-family="sans-serif" font-size="12" lengthAdjust="spacing" textLength="76.0254" x="140.9824" y="433.3848">Limpiar IF/ID</text><rect fill="#F1F1F1" height="33.9688" rx="12.5" ry="12.5" style="stroke:#181818;stroke-width:0.5;" width="95.252" x="131.3691" y="481.2148"/><text fill="#000000" font-family="sans-serif" font-size="12" lengthAdjust="spacing" textLength="75.252" x="141.3691" y="502.3535">flush = false</text><polygon fill="#F1F1F1" points="136.3486,363.8438,221.6416,363.8438,233.6416,375.8438,221.6416,387.8438,136.3486,387.8438,124.3486,375.8438,136.3486,363.8438" style="stroke:#181818;stroke-width:0.5;"/><text fill="#000000" font-family="sans-serif" font-size="11" lengthAdjust="spacing" textLength="8.7871" x="182.9951" y="398.0542">s&#237;</text><text fill="#000000" font-family="sans-serif" font-size="11" lengthAdjust="spacing" textLength="85.293" x="136.3486" y="379.6519">"&#191;flush activo?"</text><polygon fill="#F1F1F1" points="178.9951,535.1836,190.9951,547.1836,178.9951,559.1836,166.9951,547.1836,178.9951,535.1836" style="stroke:#181818;stroke-width:0.5;"/><rect fill="#F1F1F1" height="33.9688" rx="12.5" ry="12.5" style="stroke:#181818;stroke-width:0.5;" width="170.6621" x="93.6641" y="586.6836"/><text fill="#000000" font-family="sans-serif" font-size="12" lengthAdjust="spacing" textLength="150.6621" x="103.6641" y="607.8223">Etapa ID (decodificaci&#243;n)</text><rect fill="#F1F1F1" height="33.9688" rx="12.5" ry="12.5" style="stroke:#181818;stroke-width:0.5;" width="178.9297" x="89.5303" y="640.6523"/><text fill="#000000" font-family="sans-serif" font-size="12" lengthAdjust="spacing" textLength="158.9297" x="99.5303" y="661.791">Detectar hazards &#8594; &#191;stall?</text><rect fill="#F1F1F1" height="33.9688" rx="12.5" ry="12.5" style="stroke:#181818;stroke-width:0.5;" width="116.5859" x="120.7021" y="743.0234"/><text fill="#000000" font-family="sans-serif" font-size="12" lengthAdjust="spacing" textLength="96.5859" x="130.7021" y="764.1621">Insertar burbuja</text><polygon fill="#F1F1F1" points="156.6487,694.6211,201.3416,694.6211,213.3416,706.6211,201.3416,718.6211,156.6487,718.6211,144.6487,706.6211,156.6487,694.6211" style="stroke:#181818;stroke-width:0.5;"/><text fill="#000000" font-family="sans-serif" font-size="11" lengthAdjust="spacing" textLength="8.7871" x="182.9951" y="728.8315">s&#237;</text><text fill="#000000" font-family="sans-serif" font-size="11" lengthAdjust="spacing" textLength="44.6929" x="156.6487" y="710.4292">"&#191;stall?"</text><polygon fill="#F1F1F1" points="178.9951,796.9922,190.9951,808.9922,178.9951,820.9922,166.9951,808.9922,178.9951,796.9922" style="stroke:#181818;stroke-width:0.5;"/><rect fill="#F1F1F1" height="33.9688" rx="12.5" ry="12.5" style="stroke:#181818;stroke-width:0.5;" width="112.5605" x="122.7148" y="840.9922"/><text fill="#000000" font-family="sans-serif" font-size="12" lengthAdjust="spacing" textLength="92.5605" x="132.7148" y="862.1309">Etapa IF (fetch)</text><rect fill="#F1F1F1" height="33.9688" rx="12.5" ry="12.5" style="stroke:#181818;stroke-width:0.5;" width="233.9551" x="62.0176" y="894.9609"/><text fill="#000000" font-family="sans-serif" font-size="12" lengthAdjust="spacing" textLength="213.9551" x="72.0176" y="916.0996">Actualizar visualizaci&#243;n del pipeline</text><polygon fill="#F1F1F1" points="178.9951,157.9375,190.9951,169.9375,178.9951,181.9375,166.9951,169.9375,178.9951,157.9375" style="stroke:#181818;stroke-width:0.5;"/><polygon fill="#F1F1F1" points="64.4458,948.9297,293.5444,948.9297,305.5444,960.9297,293.5444,972.9297,64.4458,972.9297,52.4458,960.9297,64.4458,948.9297" style="stroke:#181818;stroke-width:0.5;"/><text fill="#000000" font-family="sans-serif" font-size="11" lengthAdjust="spacing" textLength="229.0986" x="64.4458" y="964.7378">"Quedan instrucciones o etapas activas?"</text><rect fill="#F1F1F1" height="33.9688" rx="12.5" ry="12.5" style="stroke:#181818;stroke-width:0.5;" width="247.3906" x="55.2998" y="992.9297"/><text fill="#000000" font-family="sans-serif" font-size="12" lengthAdjust="spacing" textLength="227.3906" x="65.2998" y="1014.0684">Calcular estad&#237;sticas (CPI, ciclos, etc.)</text><ellipse cx="178.9951" cy="1057.8984" fill="none" rx="11" ry="11" style="stroke:#222222;stroke-width:1;"/><ellipse cx="178.9951" cy="1057.8984" fill="#222222" rx="6" ry="6" style="stroke:#222222;stroke-width:1;"/><line style="stroke:#181818;stroke-width:1;" x1="178.9951" x2="178.9951" y1="30" y2="50"/><polygon fill="#181818" points="174.9951,40,178.9951,50,182.9951,40,178.9951,44" style="stroke:#181818;stroke-width:1;"/><line style="stroke:#181818;stroke-width:1;" x1="178.9951" x2="178.9951" y1="83.9688" y2="103.9688"/><polygon fill="#181818" points="174.9951,93.9688,178.9951,103.9688,182.9951,93.9688,178.9951,97.9688" style="stroke:#181818;stroke-width:1;"/><line style="stroke:#181818;stroke-width:1;" x1="178.9951" x2="178.9951" y1="235.9063" y2="255.9063"/><polygon fill="#181818" points="174.9951,245.9063,178.9951,255.9063,182.9951,245.9063,178.9951,249.9063" style="stroke:#181818;stroke-width:1;"/><line style="stroke:#181818;stroke-width:1;" x1="178.9951" x2="178.9951" y1="289.875" y2="309.875"/><polygon fill="#181818" points="174.9951,299.875,178.9951,309.875,182.9951,299.875,178.9951,303.875" style="stroke:#181818;stroke-width:1;"/><line style="stroke:#181818;stroke-width:1;" x1="178.9951" x2="178.9951" y1="446.2148" y2="481.2148"/><polygon fill="#181818" points="174.9951,471.2148,178.9951,481.2148,182.9951,471.2148,178.9951,475.2148" style="stroke:#181818;stroke-width:1;"/><line style="stroke:#181818;stroke-width:1;" x1="178.9951" x2="178.9951" y1="387.8438" y2="412.2461"/><polygon fill="#181818" points="174.9951,402.2461,178.9951,412.2461,182.9951,402.2461,178.9951,406.2461" style="stroke:#181818;stroke-width:1;"/><line style="stroke:#181818;stroke-width:1;" x1="233.6416" x2="245.6416" y1="375.8438" y2="375.8438"/><polygon fill="#181818" points="241.6416,453.7148,245.6416,463.7148,249.6416,453.7148,245.6416,457.7148" style="stroke:#181818;stroke-width:1;"/><line style="stroke:#181818;stroke-width:1;" x1="245.6416" x2="245.6416" y1="375.8438" y2="547.1836"/><line style="stroke:#181818;stroke-width:1;" x1="245.6416" x2="190.9951" y1="547.1836" y2="547.1836"/><polygon fill="#181818" points="200.9951,543.1836,190.9951,547.1836,200.9951,551.1836,196.9951,547.1836" style="stroke:#181818;stroke-width:1;"/><line style="stroke:#181818;stroke-width:1;" x1="178.9951" x2="178.9951" y1="515.1836" y2="535.1836"/><polygon fill="#181818" points="174.9951,525.1836,178.9951,535.1836,182.9951,525.1836,178.9951,529.1836" style="stroke:#181818;stroke-width:1;"/><line style="stroke:#181818;stroke-width:1;" x1="178.9951" x2="178.9951" y1="343.8438" y2="363.8438"/><polygon fill="#181818" points="174.9951,353.8438,178.9951,363.8438,182.9951,353.8438,178.9951,357.8438" style="stroke:#181818;stroke-width:1;"/><line style="stroke:#181818;stroke-width:1;" x1="178.9951" x2="178.9951" y1="559.1836" y2="586.6836"/><polygon fill="#181818" points="174.9951,576.6836,178.9951,586.6836,182.9951,576.6836,178.9951,580.6836" style="stroke:#181818;stroke-width:1;"/><line style="stroke:#181818;stroke-width:1;" x1="178.9951" x2="178.9951" y1="620.6523" y2="640.6523"/><polygon fill="#181818" points="174.9951,630.6523,178.9951,640.6523,182.9951,630.6523,178.9951,634.6523" style="stroke:#181818;stroke-width:1;"/><line style="stroke:#181818;stroke-width:1;" x1="178.9951" x2="178.9951" y1="718.6211" y2="743.0234"/><polygon fill="#181818" points="174.9951,733.0234,178.9951,743.0234,182.9951,733.0234,178.9951,737.0234" style="stroke:#181818;stroke-width:1;"/><line style="stroke:#181818;stroke-width:1;" x1="213.3416" x2="247.2881" y1="706.6211" y2="706.6211"/><polygon fill="#181818" points="243.2881,750.0078,247.2881,760.0078,251.2881,750.0078,247.2881,754.0078" style="stroke:#181818;stroke-width:1;"/><line style="stroke:#181818;stroke-width:1;" x1="247.2881" x2="247.2881" y1="706.6211" y2="808.9922"/><line style="stroke:#181818;stroke-width:1;" x1="247.2881" x2="190.9951" y1="808.9922" y2="808.9922"/><polygon fill="#181818" points="200.9951,804.9922,190.9951,808.9922,200.9951,812.9922,196.9951,808.9922" style="stroke:#181818;stroke-width:1;"/><line style="stroke:#181818;stroke-width:1;" x1="178.9951" x2="178.9951" y1="776.9922" y2="796.9922"/><polygon fill="#181818" points="174.9951,786.9922,178.9951,796.9922,182.9951,786.9922,178.9951,790.9922" style="stroke:#181818;stroke-width:1;"/><line style="stroke:#181818;stroke-width:1;" x1="178.9951" x2="178.9951" y1="674.6211" y2="694.6211"/><polygon fill="#181818" points="174.9951,684.6211,178.9951,694.6211,182.9951,684.6211,178.9951,688.6211" style="stroke:#181818;stroke-width:1;"/><line style="stroke:#181818;stroke-width:1;" x1="178.9951" x2="178.9951" y1="820.9922" y2="840.9922"/><polygon fill="#181818" points="174.9951,830.9922,178.9951,840.9922,182.9951,830.9922,178.9951,834.9922" style="stroke:#181818;stroke-width:1;"/><line style="stroke:#181818;stroke-width:1;" x1="178.9951" x2="178.9951" y1="874.9609" y2="894.9609"/><polygon fill="#181818" points="174.9951,884.9609,178.9951,894.9609,182.9951,884.9609,178.9951,888.9609" style="stroke:#181818;stroke-width:1;"/><line style="stroke:#181818;stroke-width:1;" x1="178.9951" x2="178.9951" y1="181.9375" y2="201.9375"/><polygon fill="#181818" points="174.9951,191.9375,178.9951,201.9375,182.9951,191.9375,178.9951,195.9375" style="stroke:#181818;stroke-width:1;"/><line style="stroke:#181818;stroke-width:1;" x1="305.5444" x2="317.5444" y1="960.9297" y2="960.9297"/><polygon fill="#181818" points="313.5444,579.1836,317.5444,569.1836,321.5444,579.1836,317.5444,575.1836" style="stroke:#181818;stroke-width:1;"/><line style="stroke:#181818;stroke-width:1;" x1="317.5444" x2="317.5444" y1="169.9375" y2="960.9297"/><line style="stroke:#181818;stroke-width:1;" x1="317.5444" x2="190.9951" y1="169.9375" y2="169.9375"/><polygon fill="#181818" points="200.9951,165.9375,190.9951,169.9375,200.9951,173.9375,196.9951,169.9375" style="stroke:#181818;stroke-width:1;"/><line style="stroke:#181818;stroke-width:1;" x1="178.9951" x2="178.9951" y1="928.9297" y2="948.9297"/><polygon fill="#181818" points="174.9951,938.9297,178.9951,948.9297,182.9951,938.9297,178.9951,942.9297" style="stroke:#181818;stroke-width:1;"/><line style="stroke:#181818;stroke-width:1;" x1="178.9951" x2="178.9951" y1="137.9375" y2="157.9375"/><polygon fill="#181818" points="174.9951,147.9375,178.9951,157.9375,182.9951,147.9375,178.9951,151.9375" style="stroke:#181818;stroke-width:1;"/><line style="stroke:#181818;stroke-width:1;" x1="178.9951" x2="178.9951" y1="972.9297" y2="992.9297"/><polygon fill="#181818" points="174.9951,982.9297,178.9951,992.9297,182.9951,982.9297,178.9951,986.9297" style="stroke:#181818;stroke-width:1;"/><line style="stroke:#181818;stroke-width:1;" x1="178.9951" x2="178.9951" y1="1026.8984" y2="1046.8984"/><polygon fill="#181818" points="174.9951,1036.8984,178.9951,1046.8984,182.9951,1036.8984,178.9951,1040.8984" style="stroke:#181818;stroke-width:1;"/><!--SRC=[RL5BQW914DrxYYAh4IJPZmH9_C10X6ILRCkU6gUaxHcwkWt90NA0tCDL3Y3eJNAIr3Y6KN3NlAfNx_Lx4j27NfevDeoMFz63foLBy9L0JXPghicoem6iQLrvHlZeDeQzT8n-gIHs2aHZk7AaiAUQCFG0qcd06k7r4H8Iupb4Z_rXDvXFvv2SBf_ZqpSbhCX4muSVTvnm0SdDVbVOA2MW2RofHZTz22KvIEImxUkEyfzuNRCwocPtsMJOOYtd7WgqGWr6BkUYKyicaEHaAWNPO2UPJYYGqOYWH8qc5_Zz-eRzJW9QEpeprG9Nt6HEo3S75j4luWglYSyWAIYOifLyC26UcjYmjC-Zeuiw_YE6zv8jgOUNI3cwonwW0ceaf8qBHHqsZLaJhPudTPqVjXBqpmB9-3aRW65ZAnaepzog7mbL_GS0]--></g></svg>